<svg xml:space="preserve" style="max-height: 500px" viewBox="29.325 181.333 137 133" y="0px" x="0px" xmlns:xlink="http://www.w3.org/1999/xlink" xmlns="http://www.w3.org/2000/svg" version="1.1" width="137" height="133">
<g id="BACKGROUND">
	<rect height="500" width="500" style="fill:#FFFFFF;"/>
</g>
<g id="OBJECT">
	<g>
		<path d="M162.97,98.81c0,15.75-5.62,30.19-14.97,41.41c-4.11,4.94-8.94,9.27-14.34,12.8&#10;&#9;&#9;&#9;c-1.4,0.92-2.84,1.79-4.32,2.6c-9.25,5.09-19.87,7.98-31.17,7.98c-12.07,0-23.37-3.3-33.04-9.05c-1.37-0.81-2.7-1.67-4-2.58&#10;&#9;&#9;&#9;c-5.31-3.7-10.03-8.18-14.01-13.27c-8.61-11-13.74-24.84-13.74-39.89c0-35.79,29.01-64.8,64.79-64.8&#10;&#9;&#9;&#9;C133.96,34.01,162.97,63.02,162.97,98.81z" style="fill:#D7EAF1;"/>
		<g>
			<g>
				<path d="M148,140.22c-4.11,4.94-8.94,9.27-14.34,12.8c-1.4,0.92-2.84,1.79-4.32,2.6&#10;&#9;&#9;&#9;&#9;&#9;c-9.25,5.09-19.87,7.98-31.17,7.98c-12.07,0-23.37-3.3-33.04-9.05c-1.37-0.81-2.7-1.67-4-2.58c-5.31-3.7-10.03-8.18-14.01-13.27&#10;&#9;&#9;&#9;&#9;&#9;c1.9-5.41,6.34-9.64,11.99-11.2l15.53-4.29l5.49-1.52l4.95-1.37l1.68-9.4l0.77-4.37l0.76-4.23l9.04,3.54l9.04-3.54l0.76,4.23&#10;&#9;&#9;&#9;&#9;&#9;l1.83,10.27l0.62,3.5l4.95,1.37l5.49,1.52l15.53,4.29C141.72,129.2,146.45,134.09,148,140.22z" style="fill:#FFA33B;"/>
				<path d="M114.53,121.69l-0.16,0.3c-2.65,14.51-13.57,22.82-14.05,23.18c-0.88,0.67-1.94,1-2.99,1&#10;&#9;&#9;&#9;&#9;&#9;c-1.05,0-2.11-0.33-2.99-1c-0.48-0.36-11.4-8.67-14.05-23.18l-0.16-0.3l4.95-1.37l3.21-18l9.04,3.54l9.04-3.54l3.21,18&#10;&#9;&#9;&#9;&#9;&#9;L114.53,121.69z" style="fill:#FF863B;"/>
				<path d="M109.58,120.32c-2.06,13.22-12.25,20.84-12.25,20.84s-10.19-7.62-12.25-20.84l1.68-9.4l1.53-8.6&#10;&#9;&#9;&#9;&#9;&#9;l9.04,3.54l9.04-3.54l2.59,14.5L109.58,120.32z" style="fill:#86201B;"/>
				<path d="M108.96,116.82c-3.96,1.75-7.32,1.75-7.32,1.75s-8.98,0-14.88-7.65l1.53-8.6l9.04,3.54l9.04-3.54&#10;&#9;&#9;&#9;&#9;&#9;L108.96,116.82z" style="fill:#611714;"/>
				<path d="M124.002,76.92c0.472-0.228,0.808-0.714,0.855-1.235c0.047-0.522-0.216-1.285-0.64-1.593&#10;&#9;&#9;&#9;&#9;&#9;c0.291-0.397,0.37-0.942,0.204-1.406c-0.166-0.464-0.535-1.198-1.012-1.32c0.661-0.953,0.608-2.214-0.343-2.877&#10;&#9;&#9;&#9;&#9;&#9;c0.623-0.904,0.61-2.623-0.332-3.187c0.323-0.493,0.37-1.155,0.122-1.689c-0.248-0.535-0.84-1.081-1.425-1.152&#10;&#9;&#9;&#9;&#9;&#9;c0.162-0.587,0.177-1.215,0.041-1.808c-0.079-0.348-0.217-0.697-0.478-0.94c-0.261-0.244-0.86-0.545-1.18-0.386&#10;&#9;&#9;&#9;&#9;&#9;c-0.046-0.558-0.101-1.141-0.404-1.612c-0.303-0.471-1.053-0.918-1.553-0.666c0.103-0.635-0.172-1.316-0.686-1.701&#10;&#9;&#9;&#9;&#9;&#9;s-1.502-0.432-2.082-0.156c-0.167-0.578-0.414-1.154-0.849-1.57c-0.435-0.417-1.091-0.686-1.66-0.486&#10;&#9;&#9;&#9;&#9;&#9;c-0.02-0.942-0.915-1.775-1.856-1.727c-0.198,0.01-0.43,0.014-0.329,0.184c-0.056-0.677-0.697-1.188-1.363-1.32&#10;&#9;&#9;&#9;&#9;&#9;c-0.666-0.132-1.453,0.169-2.111,0.337c-0.24-0.603-0.814-1.061-1.456-1.161c-0.642-0.099-1.483,0.01-1.894,0.513&#10;&#9;&#9;&#9;&#9;&#9;c-0.779-0.988-2.711-1.151-3.807-0.535c-0.318-0.927-1.455-1.166-2.435-1.166c-0.98,0-2.117,0.239-2.435,1.166&#10;&#9;&#9;&#9;&#9;&#9;c-1.097-0.616-3.029-0.453-3.807,0.535c-0.412-0.502-1.253-0.612-1.894-0.513c-0.642,0.1-1.216,0.557-1.456,1.161&#10;&#9;&#9;&#9;&#9;&#9;c-0.658-0.168-1.445-0.469-2.111-0.337c-0.666,0.132-1.307,0.643-1.363,1.32c0.101-0.171-0.131-0.174-0.329-0.184&#10;&#9;&#9;&#9;&#9;&#9;c-0.942-0.048-1.836,0.785-1.856,1.727c-0.568-0.2-1.225,0.069-1.659,0.486c-0.435,0.417-0.682,0.992-0.849,1.57&#10;&#9;&#9;&#9;&#9;&#9;c-0.58-0.276-1.568-0.23-2.082,0.156s-0.789,1.067-0.686,1.701c-0.5-0.252-1.25,0.195-1.553,0.666&#10;&#9;&#9;&#9;&#9;&#9;c-0.303,0.471-0.358,1.054-0.404,1.612c-0.32-0.158-0.919,0.143-1.18,0.386c-0.261,0.243-0.399,0.592-0.478,0.94&#10;&#9;&#9;&#9;&#9;&#9;c-0.135,0.594-0.121,1.221,0.041,1.808c-0.585,0.071-1.176,0.618-1.425,1.152c-0.248,0.535-0.201,1.196,0.122,1.689&#10;&#9;&#9;&#9;&#9;&#9;c-0.942,0.563-0.955,2.283-0.332,3.187c-0.951,0.663-1.003,1.925-0.343,2.877c-0.477,0.123-0.846,0.856-1.012,1.32&#10;&#9;&#9;&#9;&#9;&#9;c-0.166,0.464-0.087,1.008,0.204,1.406c-0.424,0.308-0.687,1.071-0.64,1.593c0.047,0.522,0.383,1.008,0.855,1.235&#10;&#9;&#9;&#9;&#9;&#9;c-0.792,0.811-0.504,2.602,0.481,3.164c-0.195,0.191-0.305,0.71-0.418,0.958c-0.078,0.171-0.111,0.357-0.143,0.542&#10;&#9;&#9;&#9;&#9;&#9;c-0.071,0.406-0.142,0.83-0.017,1.223c0.125,0.393,0.513,0.735,0.918,0.66c-0.672,0.797-0.351,2.686,0.482,3.312&#10;&#9;&#9;&#9;&#9;&#9;c-0.281,0.655,0.307,1.854,0.819,2.35c0.513,0.496,1.339,0.633,1.985,0.33c-0.145,0.564-0.109,1.246,0.042,1.808&#10;&#9;&#9;&#9;&#9;&#9;c0.151,0.562,0.679,1.067,1.256,0.986c-0.082,0.531,0.128,1.169,0.401,1.631s0.894,0.75,1.372,0.505&#10;&#9;&#9;&#9;&#9;&#9;c-0.206,0.492,0.021,1.268,0.325,1.706c0.305,0.438,0.841,0.704,1.373,0.682c-0.055,0.802,0.55,1.715,1.303,1.995&#10;&#9;&#9;&#9;&#9;&#9;c0.643,0.239,1.358,0.111,2.031-0.021c0.412-0.08,0.824-0.16,1.236-0.241l13.226-1.6l13.226,1.6&#10;&#9;&#9;&#9;&#9;&#9;c0.412,0.08,0.824,0.16,1.236,0.241c0.674,0.131,1.388,0.259,2.031,0.021c0.753-0.28,1.358-1.193,1.303-1.995&#10;&#9;&#9;&#9;&#9;&#9;c0.533,0.022,1.069-0.244,1.373-0.682c0.305-0.438,0.531-1.214,0.325-1.706c0.478,0.246,1.098-0.042,1.372-0.505&#10;&#9;&#9;&#9;&#9;&#9;c0.273-0.462,0.484-1.101,0.401-1.631c0.576,0.081,1.105-0.424,1.256-0.986c0.151-0.562,0.187-1.245,0.042-1.808&#10;&#9;&#9;&#9;&#9;&#9;c0.646,0.303,1.472,0.166,1.984-0.33c0.513-0.496,1.101-1.695,0.819-2.35c0.833-0.626,1.155-2.516,0.482-3.312&#10;&#9;&#9;&#9;&#9;&#9;c0.405,0.075,0.793-0.267,0.918-0.66c0.125-0.393,0.054-0.817-0.017-1.223c-0.032-0.185-0.066-0.371-0.143-0.542&#10;&#9;&#9;&#9;&#9;&#9;c-0.113-0.248-0.223-0.768-0.418-0.958C124.506,79.523,124.795,77.731,124.002,76.92z" style="fill:#051733;"/>
				<path d="M121.758,82.775c-0.121-0.798-0.417-1.608-1.026-2.138c-0.549-0.478-1.305-0.675-2.032-0.644&#10;&#9;&#9;&#9;&#9;&#9;c-0.727,0.031-1.431,0.274-2.086,0.591c0,0-0.064-18.435-6.599-18.65c-4.285-0.214-6.192,1.071-12.684,1.071&#10;&#9;&#9;&#9;&#9;&#9;c-6.493,0-8.399-1.286-12.684-1.071c-6.535,0.214-6.599,18.65-6.599,18.65c-0.655-0.317-1.359-0.56-2.086-0.591&#10;&#9;&#9;&#9;&#9;&#9;c-0.727-0.031-1.483,0.166-2.032,0.644c-0.609,0.529-0.904,1.34-1.026,2.138c-0.244,1.601,0.14,3.29,1.051,4.629&#10;&#9;&#9;&#9;&#9;&#9;c0.911,1.339,2.257,2.346,3.836,2.707C80.575,109.61,97.33,109.61,97.33,109.61s16.755,0,19.541-19.498&#10;&#9;&#9;&#9;&#9;&#9;c1.579-0.361,2.925-1.368,3.836-2.707C121.618,86.065,122.001,84.376,121.758,82.775z" style="fill:#86201B;"/>
			</g>
			<g>
				<g>
					<g>
						<path d="M94.88,80.62c-0.44-1.55-1.87-2.69-3.55-2.69h-6.45c-1.48,0-2.76,0.88-3.35,2.14&#10;&#9;&#9;&#9;&#9;&#9;&#9;&#9;c-0.22,0.47-0.34,1-0.34,1.55v2.91c0,2.03,1.66,3.68,3.69,3.68h6.45c2.03,0,3.69-1.65,3.69-3.68v-2.91&#10;&#9;&#9;&#9;&#9;&#9;&#9;&#9;C95.02,81.27,94.97,80.94,94.88,80.62z M93.02,84.53c0,0.92-0.76,1.68-1.69,1.68h-6.45c-0.93,0-1.69-0.76-1.69-1.68v-2.96&#10;&#9;&#9;&#9;&#9;&#9;&#9;&#9;c0.01-0.01,0.01-0.01,0-0.02v-0.01c0.05-0.9,0.79-1.61,1.69-1.61h6.45c0.93,0,1.69,0.76,1.69,1.69V84.53z" style="fill:#FFA33B;"/>
					</g>
					<g>
						<path d="M82.193,82.617c-0.171,0-0.345-0.044-0.503-0.136l-4.147-2.421&#10;&#9;&#9;&#9;&#9;&#9;&#9;&#9;c-0.477-0.278-0.638-0.891-0.36-1.368c0.278-0.478,0.892-0.639,1.368-0.36l4.147,2.421c0.477,0.278,0.638,0.891,0.36,1.368&#10;&#9;&#9;&#9;&#9;&#9;&#9;&#9;C82.872,82.44,82.537,82.617,82.193,82.617z" style="fill:#FFA33B;"/>
					</g>
				</g>
				<g>
					<g>
						<path d="M113.13,80.07c-0.59-1.26-1.87-2.14-3.35-2.14h-6.45c-1.68,0-3.11,1.14-3.54,2.69&#10;&#9;&#9;&#9;&#9;&#9;&#9;&#9;c-0.1,0.32-0.15,0.65-0.15,1v2.91c0,2.03,1.66,3.68,3.69,3.68h6.45c2.03,0,3.69-1.65,3.69-3.68v-2.91&#10;&#9;&#9;&#9;&#9;&#9;&#9;&#9;C113.47,81.07,113.35,80.54,113.13,80.07z M111.47,84.53c0,0.92-0.76,1.68-1.69,1.68h-6.45c-0.93,0-1.69-0.76-1.69-1.68v-2.91&#10;&#9;&#9;&#9;&#9;&#9;&#9;&#9;c0-0.93,0.76-1.69,1.69-1.69h6.45c0.9,0,1.64,0.71,1.69,1.61v0.01c-0.01,0.01-0.01,0.01,0,0.02V84.53z" style="fill:#FFA33B;"/>
					</g>
					<g>
						<path d="M112.467,82.617c-0.344,0-0.679-0.177-0.865-0.496c-0.278-0.477-0.117-1.089,0.36-1.368&#10;&#9;&#9;&#9;&#9;&#9;&#9;&#9;l4.147-2.421c0.476-0.278,1.09-0.117,1.368,0.36c0.278,0.477,0.117,1.089-0.36,1.368l-4.147,2.421&#10;&#9;&#9;&#9;&#9;&#9;&#9;&#9;C112.812,82.573,112.638,82.617,112.467,82.617z" style="fill:#FFA33B;"/>
					</g>
				</g>
				<g>
					<path d="M100.643,82.617h-6.625c-0.552,0-1-0.448-1-1c0-0.552,0.448-1,1-1h6.625c0.552,0,1,0.448,1,1&#10;&#9;&#9;&#9;&#9;&#9;&#9;C101.643,82.17,101.195,82.617,100.643,82.617z" style="fill:#FFA33B;"/>
				</g>
			</g>
			<g>
				<path d="M133.66,153.02c-1.4,0.92-2.84,1.79-4.32,2.6l2.78-15.18L133.66,153.02z" style="fill:#FF863B;"/>
				<path d="M65.13,154.55c-1.37-0.81-2.7-1.67-4-2.58l1.41-11.53L65.13,154.55z" style="fill:#FF863B;"/>
			</g>
			<g>
				<path d="M96.391,82.759V94.2h1.939C101.653,94.2,97.008,84.074,96.391,82.759z" style="fill:#611714;"/>
				<g>
					<g>
						<path d="M110.488,75.329c-2.68-1.324-5.659-1.52-8.452-0.41c-1.183,0.471-0.668,2.406,0.532,1.929&#10;&#9;&#9;&#9;&#9;&#9;&#9;&#9;c2.289-0.91,4.686-0.891,6.911,0.208C110.631,77.625,111.645,75.9,110.488,75.329z" style="fill:#051733;"/>
						<path d="M108.076,82.759c0,1.042-0.844,1.886-1.886,1.886c-1.042,0-1.886-0.844-1.886-1.886&#10;&#9;&#9;&#9;&#9;&#9;&#9;&#9;c0-1.042,0.844-1.886,1.886-1.886C107.231,80.873,108.076,81.717,108.076,82.759z" style="fill:#051733;"/>
					</g>
					<g>
						<g>
							<path d="M84.172,75.329c2.68-1.324,5.659-1.52,8.452-0.41c1.183,0.471,0.668,2.406-0.532,1.929&#10;&#9;&#9;&#9;&#9;&#9;&#9;&#9;&#9;c-2.289-0.91-4.686-0.891-6.911,0.208C84.029,77.625,83.016,75.9,84.172,75.329z" style="fill:#051733;"/>
							<path d="M86.585,82.759c0,1.042,0.844,1.886,1.886,1.886c1.042,0,1.886-0.844,1.886-1.886&#10;&#9;&#9;&#9;&#9;&#9;&#9;&#9;&#9;c0-1.042-0.844-1.886-1.886-1.886C87.429,80.873,86.585,81.717,86.585,82.759z" style="fill:#051733;"/>
						</g>
					</g>
				</g>
				<path d="M91.185,96.742c0.665,2.482,3.16,4.33,6.146,4.33c2.985,0,5.481-1.848,6.145-4.33H91.185z" style="fill:#FFFFFF;"/>
			</g>
		</g>
	</g>
	<g>
		<path d="M314.8,98.81c0,18.33-7.62,34.89-19.86,46.67c-2.42,2.34-5.02,4.48-7.78,6.41&#10;&#9;&#9;&#9;c-1.58,1.12-3.22,2.16-4.9,3.13c-9.36,5.38-20.2,8.49-31.76,8.57c-0.17,0.01-0.33,0.01-0.5,0.01s-0.33,0-0.5-0.01&#10;&#9;&#9;&#9;c-10.69-0.07-20.77-2.74-29.63-7.41c-1.91-1-3.76-2.09-5.55-3.29c-3.32-2.18-6.41-4.66-9.26-7.41&#10;&#9;&#9;&#9;c-12.24-11.78-19.86-28.34-19.86-46.67c0-35.79,29.01-64.8,64.8-64.8S314.8,63.02,314.8,98.81z" style="fill:#D7EAF1;"/>
		<g>
			<g>
				<path d="M286.111,105.328c-0.909-1.893-2.341-3.567-2.81-5.614c-0.437-1.91,0.022-3.895,0.405-5.816&#10;&#9;&#9;&#9;&#9;&#9;c0.834-4.188,1.273-8.688-0.439-12.601c-1.852-4.232-5.933-7.116-8.066-11.214c-2.329-4.474-2.164-10.058-5.079-14.174&#10;&#9;&#9;&#9;&#9;&#9;c-2.886-4.075-8.136-5.74-13.101-6.273c-0.934-0.1-1.93-0.055-2.914,0.118c-2.709,0.476-5.502,0.476-8.211,0&#10;&#9;&#9;&#9;&#9;&#9;c-0.985-0.173-1.981-0.219-2.914-0.118c-4.965,0.533-10.215,2.199-13.101,6.273c-2.916,4.116-2.75,9.7-5.079,14.174&#10;&#9;&#9;&#9;&#9;&#9;c-2.133,4.098-6.214,6.981-8.066,11.214c-1.712,3.912-1.273,8.412-0.44,12.601c0.383,1.921,0.842,3.906,0.405,5.816&#10;&#9;&#9;&#9;&#9;&#9;c-0.468,2.048-1.901,3.721-2.81,5.614c-2.031,4.23-1.343,9.866,1.975,13.184c8.473,8.473,34.136,2.622,34.136,2.622&#10;&#9;&#9;&#9;&#9;&#9;s25.663,5.85,34.136-2.622C287.454,115.194,288.142,109.558,286.111,105.328z" style="fill:#051733;"/>
				<path d="M294.94,145.48c-2.42,2.34-5.02,4.48-7.78,6.41c-1.58,1.12-3.22,2.16-4.9,3.13&#10;&#9;&#9;&#9;&#9;&#9;c-9.36,5.38-20.2,8.49-31.76,8.57c-0.17,0.01-0.33,0.01-0.5,0.01s-0.33,0-0.5-0.01c-10.69-0.07-20.77-2.74-29.63-7.41&#10;&#9;&#9;&#9;&#9;&#9;c-1.91-1-3.76-2.09-5.55-3.29c-3.32-2.18-6.41-4.66-9.26-7.41c3.29-4.86,8.01-8.65,13.58-10.79l5.97-2.3&#10;&#9;&#9;&#9;&#9;&#9;c2.21-0.85,4.26-1.99,6.11-3.37l0.01-0.01c2.27-1.68,4.23-3.72,5.82-6.04c0.51-0.73,0.97-1.49,1.4-2.27&#10;&#9;&#9;&#9;&#9;&#9;c0.15-0.27,0.29-0.55,0.43-0.83c0.11-0.21,0.21-0.42,0.3-0.63c0.09-0.18,0.17-0.36,0.25-0.55c0.21-0.46,0.4-0.93,0.57-1.41&#10;&#9;&#9;&#9;&#9;&#9;c0.13-0.34,0.25-0.69,0.36-1.04c0.19-0.59,0.36-1.18,0.5-1.78c0.07-0.28,0.14-0.56,0.19-0.84l0.35-1.7l0.93-4.46l1.06-5.14&#10;&#9;&#9;&#9;&#9;&#9;h14.22l1.06,5.14l1.28,6.16c0.08,0.39,0.17,0.77,0.27,1.15c0.12,0.5,0.27,0.99,0.42,1.47c0.19,0.6,0.4,1.19,0.64,1.77&#10;&#9;&#9;&#9;&#9;&#9;c0.09,0.25,0.2,0.49,0.31,0.74c0.25,0.57,0.51,1.12,0.8,1.67c0.17,0.31,0.34,0.61,0.51,0.91c0.33,0.56,0.68,1.11,1.05,1.64&#10;&#9;&#9;&#9;&#9;&#9;c1.59,2.32,3.55,4.36,5.82,6.04c1.85,1.39,3.91,2.52,6.12,3.38l5.97,2.3C286.93,136.83,291.65,140.62,294.94,145.48z" style="fill:#E30081;"/>
				<g>
					<path d="M250.5,141v22.59c-0.17,0.01-0.33,0.01-0.5,0.01s-0.33,0-0.5-0.01V141&#10;&#9;&#9;&#9;&#9;&#9;&#9;c0-0.09,0.02-0.18,0.05-0.25v-0.01c0.09-0.18,0.25-0.3,0.45-0.3s0.36,0.12,0.45,0.3v0.01C250.48,140.82,250.5,140.91,250.5,141&#10;&#9;&#9;&#9;&#9;&#9;&#9;z" style="fill:#A80060;"/>
				</g>
				<path d="M262.4,121.33c-9.79,8.56-12.4,23.17-12.4,23.17s-0.89-11.33-12.05-23.8&#10;&#9;&#9;&#9;&#9;&#9;c1.2-2.19,2.08-4.57,2.6-7.08l0.35-1.7l1.99-9.6h14.22l2.34,11.3c0.5,2.4,1.33,4.69,2.44,6.8&#10;&#9;&#9;&#9;&#9;&#9;C262.06,120.73,262.23,121.03,262.4,121.33z" style="fill:#F69779;"/>
				<g>
					<g>
						<path d="M261.89,120.42c-2.83,0.86-4.92,0.86-4.92,0.86s-10.27,0-16.07-9.36l1.99-9.6h14.22l2.34,11.3&#10;&#9;&#9;&#9;&#9;&#9;&#9;&#9;C259.95,116.02,260.78,118.31,261.89,120.42z" style="fill:#F37A67;"/>
					</g>
				</g>
				<g>
					<g>
						<path d="M274.428,82.775c-0.122-0.798-0.417-1.608-1.026-2.138c-0.549-0.478-1.305-0.675-2.032-0.644&#10;&#9;&#9;&#9;&#9;&#9;&#9;&#9;c-0.727,0.031-1.431,0.274-2.086,0.591c0,0-0.064-18.435-6.599-18.65c-4.285-0.214-6.192,1.071-12.684,1.071&#10;&#9;&#9;&#9;&#9;&#9;&#9;&#9;c-6.493,0-8.399-1.286-12.684-1.071c-6.535,0.214-6.599,18.65-6.599,18.65c-0.655-0.317-1.359-0.56-2.086-0.591&#10;&#9;&#9;&#9;&#9;&#9;&#9;&#9;c-0.727-0.031-1.483,0.166-2.032,0.644c-0.609,0.529-0.905,1.34-1.026,2.138c-0.244,1.601,0.139,3.29,1.051,4.629&#10;&#9;&#9;&#9;&#9;&#9;&#9;&#9;c0.911,1.339,2.257,2.346,3.836,2.707C233.245,109.61,250,109.61,250,109.61s16.755,0,19.541-19.498&#10;&#9;&#9;&#9;&#9;&#9;&#9;&#9;c1.579-0.361,2.925-1.368,3.836-2.707C274.288,86.065,274.671,84.376,274.428,82.775z" style="fill:#F69779;"/>
					</g>
				</g>
			</g>
			<g>
				<g>
					<path d="M261.441,126.717l9.113,4.558l-7.529-13.274c0,0-0.808-1.783-3.368-1.783L261.441,126.717z" style="fill:#FF54B6;"/>
					<path d="M250,144.5c0,0,4.716-12.399,11.441-17.783l-1.784-10.499&#10;&#9;&#9;&#9;&#9;&#9;&#9;C259.658,116.218,250.5,133.5,250,144.5z" style="fill:#A80060;"/>
				</g>
				<g>
					<path d="M238.559,126.717l-9.113,4.558l7.529-13.274c0,0,0.808-1.783,3.368-1.783L238.559,126.717z" style="fill:#FF54B6;"/>
					<path d="M250,144.5c0,0-4.716-12.399-11.441-17.783l1.784-10.499C240.342,116.218,249.5,133.5,250,144.5&#10;&#9;&#9;&#9;&#9;&#9;&#9;z" style="fill:#A80060;"/>
				</g>
			</g>
			<g>
				<path d="M287.16,151.89c-1.58,1.12-3.22,2.16-4.9,3.13l3.39-9.48L287.16,151.89z" style="fill:#A80060;"/>
				<path d="M219.87,156.18c-1.91-1-3.76-2.09-5.55-3.29l1.75-7.35L219.87,156.18z" style="fill:#A80060;"/>
			</g>
			<g>
				<path d="M249.061,79.626v11.441H251C254.323,91.067,249.678,80.941,249.061,79.626z" style="fill:#F37A67;"/>
				<g>
					<g>
						<path d="M263.158,75.169c-2.68-1.324-5.658-1.521-8.452-0.41c-1.183,0.471-0.668,2.406,0.532,1.929&#10;&#9;&#9;&#9;&#9;&#9;&#9;&#9;c2.289-0.91,4.686-0.891,6.911,0.208C263.301,77.465,264.314,75.74,263.158,75.169z" style="fill:#051733;"/>
						<path d="M260.745,78.732c-0.609-1.056-1.886-0.992-1.886-0.992c-1.042,0-1.886,0.844-1.886,1.886&#10;&#9;&#9;&#9;&#9;&#9;&#9;&#9;c0,1.042,0.844,1.886,1.886,1.886c0.23,0,0.447-0.047,0.651-0.122l0.001,0.005c0.012-0.004,0.021-0.011,0.033-0.016&#10;&#9;&#9;&#9;&#9;&#9;&#9;&#9;c0.061-0.024,0.118-0.054,0.176-0.084c1.649-0.715,1.825-2.546,1.825-2.546C261.216,79.026,260.745,78.732,260.745,78.732z" style="fill:#051733;"/>
					</g>
					<g>
						<path d="M236.842,75.169c2.68-1.324,5.659-1.521,8.452-0.41c1.183,0.471,0.668,2.406-0.532,1.929&#10;&#9;&#9;&#9;&#9;&#9;&#9;&#9;c-2.289-0.91-4.686-0.891-6.911,0.208C236.699,77.465,235.686,75.74,236.842,75.169z" style="fill:#051733;"/>
						<path d="M239.255,78.732c0.609-1.056,1.886-0.992,1.886-0.992c1.042,0,1.886,0.844,1.886,1.886&#10;&#9;&#9;&#9;&#9;&#9;&#9;&#9;c0,1.042-0.844,1.886-1.886,1.886c-0.23,0-0.447-0.047-0.651-0.122l-0.001,0.005c-0.012-0.004-0.021-0.011-0.033-0.016&#10;&#9;&#9;&#9;&#9;&#9;&#9;&#9;c-0.061-0.024-0.118-0.054-0.176-0.084c-1.649-0.715-1.825-2.546-1.825-2.546C238.784,79.026,239.255,78.732,239.255,78.732z" style="fill:#051733;"/>
					</g>
				</g>
				<path d="M243.854,97.154c0.665,2.482,3.16,4.33,6.146,4.33c2.985,0,5.481-1.848,6.146-4.33H243.854z" style="fill:#FFFFFF;"/>
			</g>
		</g>
	</g>
	<g>
		<path d="M466.62,98.81c0,15.39-5.37,29.53-14.33,40.64c-4.05,5.03-8.84,9.43-14.2,13.05&#10;&#9;&#9;&#9;c-1.35,0.92-2.74,1.79-4.16,2.6c-1.81,1.04-3.68,1.99-5.6,2.85c-6.75,3.03-14.11,4.94-21.85,5.48c-1.35,0.1-2.7,0.16-4.07,0.16&#10;&#9;&#9;&#9;c-0.19,0.01-0.39,0.01-0.58,0.01c-0.19,0-0.37,0-0.56-0.01c-2.62-0.01-5.2-0.19-7.74-0.52c-6.41-0.82-12.52-2.57-18.2-5.12&#10;&#9;&#9;&#9;c-1.92-0.86-3.79-1.81-5.6-2.85c-1.42-0.81-2.81-1.67-4.16-2.59c-5.36-3.62-10.15-8.03-14.2-13.06&#10;&#9;&#9;&#9;c-8.97-11.11-14.34-25.25-14.34-40.64c0-35.79,29.01-64.8,64.8-64.8C437.61,34.01,466.62,63.02,466.62,98.81z" style="fill:#D7EAF1;"/>
		<g>
			<g>
				<path d="M452.29,139.45c-4.05,5.03-8.84,9.43-14.2,13.05c-1.35,0.92-2.74,1.79-4.16,2.6&#10;&#9;&#9;&#9;&#9;&#9;c-1.81,1.04-3.68,1.99-5.6,2.85c-6.75,3.03-14.11,4.94-21.85,5.48c-1.35,0.1-2.7,0.16-4.07,0.16c-0.19,0.01-0.39,0.01-0.58,0.01&#10;&#9;&#9;&#9;&#9;&#9;c-0.19,0-0.37,0-0.56-0.01c-2.62-0.01-5.2-0.19-7.74-0.52c-6.41-0.82-12.52-2.57-18.2-5.12c-1.92-0.86-3.79-1.81-5.6-2.85&#10;&#9;&#9;&#9;&#9;&#9;c-1.42-0.81-2.81-1.67-4.16-2.59c-5.36-3.62-10.15-8.03-14.2-13.06c1.74-5.77,6.33-10.32,12.24-11.95l10.99-3.04l4.54-1.25&#10;&#9;&#9;&#9;&#9;&#9;l9.48-2.63l0.52-0.14l0.44-0.12l0.56-3.16v-0.01l0.57-3.15l0.28-1.61l0.86-4.79l0.18-1.05l0.76-4.23l7.92,3.1l1.12,0.44&#10;&#9;&#9;&#9;&#9;&#9;l1.12-0.44l7.92-3.1l0.76,4.23l0.13,0.77l0.5,2.82h0.01l0.68,3.86l1.13,6.32l0.44,0.12l0.53,0.15l9.47,2.62l4.54,1.26&#10;&#9;&#9;&#9;&#9;&#9;l10.99,3.03C445.96,129.13,450.55,133.68,452.29,139.45z" style="fill:#4749D6;"/>
				<path d="M421.579,63.073c-2.312-4.336-6.735-6.735-10.809-8.062c-5.796-1.887-12.084-1.887-17.879,0&#10;&#9;&#9;&#9;&#9;&#9;c-4.074,1.326-8.497,3.726-10.809,8.062c-4.18,8.004-3.468,20.456-3.468,20.456l4.358,4.625l18.859-2.393l18.859,2.393&#10;&#9;&#9;&#9;&#9;&#9;l4.358-4.625C425.047,83.529,425.759,71.078,421.579,63.073z" style="fill:#051733;"/>
				<path d="M395.395,65.096c0,0-6.922-7.318-2.672-12.713c0.226-0.287,0.587-0.44,0.952-0.44h0.715&#10;&#9;&#9;&#9;&#9;&#9;c0.629,0,1.218-0.31,1.573-0.83l1.33-1.944c0.41-0.599,1.278-0.64,1.743-0.083l0.356,0.427c0.433,0.52,1.219,0.555,1.697,0.077&#10;&#9;&#9;&#9;&#9;&#9;l0.874-0.874c0.414-0.414,1.081-0.429,1.512-0.033l0.882,0.808c0.47,0.431,1.2,0.397,1.629-0.074l0.261-0.287&#10;&#9;&#9;&#9;&#9;&#9;c0.51-0.562,1.424-0.445,1.777,0.226l0.986,1.873c0.218,0.414,0.698,0.616,1.146,0.481l0.36-0.108&#10;&#9;&#9;&#9;&#9;&#9;c0.585-0.176,1.208,0.098,1.473,0.648c0.966,2.007,2.577,6.923-1.769,11.592L395.395,65.096z" style="fill:#1D3863;"/>
				<path d="M426.258,82.775c-0.121-0.798-0.417-1.608-1.026-2.138c-0.549-0.478-1.305-0.675-2.032-0.644&#10;&#9;&#9;&#9;&#9;&#9;c-0.727,0.031-1.431,0.274-2.086,0.591c0,0-0.064-18.435-6.599-18.65c-4.285-0.214-6.192,1.071-12.684,1.071&#10;&#9;&#9;&#9;&#9;&#9;c-6.492,0-8.399-1.286-12.684-1.071c-6.535,0.214-6.599,18.65-6.599,18.65c-0.655-0.317-1.359-0.56-2.086-0.591&#10;&#9;&#9;&#9;&#9;&#9;c-0.727-0.031-1.483,0.166-2.032,0.644c-0.609,0.529-0.904,1.34-1.026,2.138c-0.244,1.601,0.14,3.29,1.051,4.629&#10;&#9;&#9;&#9;&#9;&#9;c0.911,1.339,2.257,2.346,3.836,2.707c2.785,19.498,19.541,19.498,19.541,19.498s16.755,0,19.541-19.498&#10;&#9;&#9;&#9;&#9;&#9;c1.579-0.361,2.925-1.368,3.836-2.707C426.118,86.065,426.501,84.376,426.258,82.775z" style="fill:#F69779;"/>
			</g>
			<path d="M418.83,128.04l-12.35,35.39c-1.35,0.1-2.7,0.16-4.07,0.16c-0.19,0.01-0.39,0.01-0.58,0.01&#10;&#9;&#9;&#9;&#9;c-0.19,0-0.37,0-0.56-0.01c-2.62-0.01-5.2-0.19-7.74-0.52l-8.69-35.03l3.78-7.46h3.15l22.73,0.01h0.55L418.83,128.04z" style="fill:#FFA33B;"/>
			<path d="M414.52,120.44c-0.07,0.56-0.22,1.1-0.46,1.62c-1.52,3.45-6.43,5.98-12.23,5.98&#10;&#9;&#9;&#9;&#9;c-6.68,0-12.18-3.35-12.69-7.6l0.44-0.12l0.56-3.17l1.71-9.55l0.94-5.28l7.92,3.1v6.12c0.37-0.02,0.74-0.03,1.12-0.03&#10;&#9;&#9;&#9;&#9;c0.38,0,0.75,0.01,1.12,0.03v-6.12l7.92-3.1l1.4,7.82l1.81,10.18L414.52,120.44z" style="fill:#F69779;"/>
			<path d="M414.52,120.44c-0.07,0.56-0.22,1.1-0.46,1.62c-2.26,0.8-3.88,0.51-3.88,0.51s-1.66,2.5-6.16,2.5&#10;&#9;&#9;&#9;&#9;c-4.51,0-6.17-2.5-6.17-2.5s-1.83,0.33-4.32-0.67c-1.95-0.81-2.91-2.87-3.39-4.75l1.71-9.55c0.12,0.11,0.24,0.22,0.36,0.33&#10;&#9;&#9;&#9;&#9;c2.27,2.03,5.22,3.14,8.27,3.14h7.07c1.63,0,3.23-0.32,4.72-0.93l1.81,10.18L414.52,120.44z" style="fill:#F37A67;"/>
			<g>
				<path d="M423.21,147l5.12,10.95c-6.75,3.03-14.11,4.94-21.85,5.48c-1.35,0.1-2.7,0.16-4.07,0.16l12.64-43&#10;&#9;&#9;&#9;&#9;&#9;l9.47,2.62l4.54,1.26l7.4,13.03L423.21,147z" style="fill:#7375F5;"/>
				<path d="M401.27,163.59c-2.62-0.01-5.2-0.19-7.74-0.52c-6.41-0.82-12.52-2.57-18.2-5.12l5.13-10.95&#10;&#9;&#9;&#9;&#9;&#9;l-13.25-9.5l7.39-13.04l4.54-1.25l9.48-2.63L401.27,163.59z" style="fill:#7375F5;"/>
			</g>
			<path d="M421.113,80.585c-3.714,4.875-2.62,13.915-2.62,13.915c-1.014,2.106-3.014,4.213-4.855,5.858&#10;&#9;&#9;&#9;&#9;c-2.275,2.033-5.224,3.142-8.274,3.142h-3.534h-3.534c-3.051,0-5.999-1.11-8.274-3.142c-1.841-1.645-3.841-3.751-4.855-5.858&#10;&#9;&#9;&#9;&#9;c0,0,1.094-9.04-2.62-13.915c0,0-1.38,22.415,2.12,25.248c1.667,1.667,2.833,0,2.833,0s-0.147,6.833,3.843,8.5&#10;&#9;&#9;&#9;&#9;c2.49,1,4.324,0.667,4.324,0.667s1.66,2.5,6.163,2.5s6.163-2.5,6.163-2.5s1.833,0.333,4.324-0.667&#10;&#9;&#9;&#9;&#9;c3.99-1.667,3.843-8.5,3.843-8.5s1.167,1.667,2.833,0C422.493,103,421.113,80.585,421.113,80.585z" style="fill:#051733;"/>
			<g>
				<path d="M438.09,152.5c-1.35,0.92-2.74,1.79-4.16,2.6l2.69-14.66L438.09,152.5z" style="fill:#3537A1;"/>
				<path d="M369.73,155.1c-1.42-0.81-2.81-1.67-4.16-2.59l1.47-12.07L369.73,155.1z" style="fill:#3537A1;"/>
			</g>
			<g>
				<path d="M400.891,78.936v11.441h1.939C406.154,90.376,401.508,80.25,400.891,78.936z" style="fill:#F37A67;"/>
				<g>
					<g>
						<path d="M414.988,74.478c-2.68-1.324-5.659-1.521-8.452-0.41c-1.183,0.471-0.668,2.406,0.532,1.929&#10;&#9;&#9;&#9;&#9;&#9;&#9;&#9;c2.289-0.91,4.686-0.891,6.911,0.208C415.131,76.774,416.145,75.049,414.988,74.478z" style="fill:#051733;"/>
						<circle r="1.886" cy="78.936" cx="410.689" style="fill:#051733;"/>
					</g>
					<g>
						<path d="M388.672,74.478c2.68-1.324,5.659-1.521,8.452-0.41c1.184,0.471,0.668,2.406-0.532,1.929&#10;&#9;&#9;&#9;&#9;&#9;&#9;&#9;c-2.289-0.91-4.686-0.891-6.911,0.208C388.529,76.774,387.516,75.049,388.672,74.478z" style="fill:#051733;"/>
						<circle r="1.886" cy="78.936" cx="392.971" style="fill:#051733;"/>
					</g>
				</g>
				<path d="M395.684,97.845c0.665,2.482,3.16,4.33,6.146,4.33s5.481-1.848,6.146-4.33H395.684z" style="fill:#FFFFFF;"/>
			</g>
		</g>
	</g>
	<g>
		<path d="M466.62,250c0,15.64-5.54,29.99-14.77,41.18c-3.85,4.68-8.34,8.81-13.35,12.24&#10;&#9;&#9;&#9;c-1.71,1.19-3.48,2.28-5.31,3.29c-9.29,5.16-19.98,8.09-31.36,8.09c-11.37,0-22.07-2.93-31.36-8.09c-1.83-1-3.6-2.1-5.31-3.28&#10;&#9;&#9;&#9;c-5.01-3.44-9.5-7.56-13.35-12.24c-9.24-11.19-14.78-25.54-14.78-41.19c0-35.79,29.01-64.8,64.8-64.8&#10;&#9;&#9;&#9;C437.61,185.2,466.62,214.21,466.62,250z" style="fill:#D7EAF1;"/>
		<g>
			<g>
				<g>
					<path d="M451.85,291.18c-3.85,4.68-8.34,8.81-13.35,12.24c-1.71,1.19-3.48,2.28-5.31,3.29&#10;&#9;&#9;&#9;&#9;&#9;&#9;c-9.29,5.16-19.98,8.09-31.36,8.09c-11.37,0-22.07-2.93-31.36-8.09c-1.83-1-3.6-2.1-5.31-3.28c-5.01-3.44-9.5-7.56-13.35-12.24&#10;&#9;&#9;&#9;&#9;&#9;&#9;c1.99-5.17,6.33-9.18,11.8-10.69l15.53-4.29l0.77-0.21l9.67-2.68l0.15-0.83h24.2l0.07,0.41l0.08,0.42l9.67,2.68l0.77,0.21&#10;&#9;&#9;&#9;&#9;&#9;&#9;l15.53,4.29C445.52,282.01,449.85,286.02,451.85,291.18z" style="fill:#0C415B;"/>
					<path d="M423.75,276l-0.28,0.76c-0.08,0.22-0.16,0.43-0.25,0.61c-2.62,7.27-11.03,12.07-21.39,12.07&#10;&#9;&#9;&#9;&#9;&#9;&#9;c-10.37,0-18.77-4.8-21.39-12.07c-0.09-0.19-0.17-0.39-0.25-0.61l-0.28-0.76l9.67-2.68l0.15-0.83h24.2l0.15,0.83L423.75,276z" style="fill:#051733;"/>
					<path d="M414.08,273.32c-0.04,0.11-0.1,0.2-0.15,0.3c-0.87,3.29-5.95,5.82-12.1,5.82&#10;&#9;&#9;&#9;&#9;&#9;&#9;c-6.15,0-11.23-2.53-12.1-5.82c-0.05-0.1-0.11-0.19-0.15-0.3l1.97-11.04l1.24-6.96l9.04,3.54l9.04-3.54L414,272.9&#10;&#9;&#9;&#9;&#9;&#9;&#9;L414.08,273.32z" style="fill:#F69779;"/>
					<path d="M414,272.9c-2.97,0.95-5.2,0.95-5.2,0.95s-11.83,0-17.25-11.57l1.24-6.96l9.04,3.54l9.04-3.54&#10;&#9;&#9;&#9;&#9;&#9;&#9;L414,272.9z" style="fill:#F37A67;"/>
				</g>
				<path d="M379.954,221.015c0,0-12.387,18.241,0.892,21.551l7.904-9.066v-12.485H379.954z" style="fill:#F03832;"/>
				<path d="M421.579,216.073c-2.312-4.336-6.735-6.735-10.809-8.062c-5.796-1.887-12.084-1.887-17.879,0&#10;&#9;&#9;&#9;&#9;&#9;c-4.074,1.327-8.497,3.726-10.809,8.062c-4.18,8.004-3.468,20.456-3.468,20.456l4.358,4.625l18.859-2.393l18.859,2.393&#10;&#9;&#9;&#9;&#9;&#9;l4.358-4.625C425.047,236.529,425.759,224.078,421.579,216.073z" style="fill:#051733;"/>
				<path d="M426.258,235.775c-0.121-0.798-0.417-1.608-1.026-2.137c-0.549-0.477-1.305-0.675-2.032-0.644&#10;&#9;&#9;&#9;&#9;&#9;c-0.727,0.031-1.431,0.274-2.086,0.591c0,0-0.064-18.435-6.599-18.65c-4.285-0.214-6.192,1.071-12.684,1.071&#10;&#9;&#9;&#9;&#9;&#9;c-6.492,0-8.399-1.286-12.684-1.071c-6.535,0.214-6.599,18.65-6.599,18.65c-0.655-0.317-1.359-0.56-2.086-0.591&#10;&#9;&#9;&#9;&#9;&#9;c-0.727-0.031-1.483,0.166-2.032,0.644c-0.609,0.529-0.904,1.34-1.026,2.137c-0.244,1.602,0.14,3.29,1.051,4.629&#10;&#9;&#9;&#9;&#9;&#9;c0.911,1.339,2.257,2.346,3.836,2.707c2.785,19.498,19.541,19.498,19.541,19.498s16.755,0,19.541-19.498&#10;&#9;&#9;&#9;&#9;&#9;c1.579-0.361,2.925-1.368,3.836-2.707S426.501,237.376,426.258,235.775z" style="fill:#F69779;"/>
			</g>
			<circle r="2.329" cy="202.86" cx="401.83" style="fill:#B32A25;"/>
			<path d="M401.83,204.08c0,0-21.583-0.232-22.343,21.182h22.343h22.343&#10;&#9;&#9;&#9;&#9;C423.413,203.848,401.83,204.08,401.83,204.08z" style="fill:#B32A25;"/>
			<path d="M401.83,204.08c0,0-14.727-0.232-15.245,21.182h15.245h15.245&#10;&#9;&#9;&#9;&#9;C416.557,203.848,401.83,204.08,401.83,204.08z" style="fill:#F03832;"/>
			<g>
				<path d="M400.891,236.436v11.441h1.939C406.154,247.876,401.508,237.75,400.891,236.436z" style="fill:#F37A67;"/>
				<g>
					<g>
						<path d="M414.988,231.978c-2.68-1.324-5.659-1.52-8.452-0.41c-1.183,0.471-0.668,2.406,0.532,1.928&#10;&#9;&#9;&#9;&#9;&#9;&#9;&#9;c2.289-0.91,4.686-0.891,6.911,0.208C415.131,234.274,416.145,232.549,414.988,231.978z" style="fill:#051733;"/>
						<circle r="1.886" cy="236.436" cx="410.689" style="fill:#051733;"/>
					</g>
					<g>
						<path d="M388.672,231.978c2.68-1.324,5.659-1.52,8.452-0.41c1.184,0.471,0.668,2.406-0.532,1.928&#10;&#9;&#9;&#9;&#9;&#9;&#9;&#9;c-2.289-0.91-4.686-0.891-6.911,0.208C388.529,234.274,387.516,232.549,388.672,231.978z" style="fill:#051733;"/>
						<circle r="1.886" cy="236.436" cx="392.971" style="fill:#051733;"/>
					</g>
				</g>
				<path d="M395.684,252.345c0.665,2.482,3.16,4.33,6.146,4.33s5.481-1.848,6.146-4.33H395.684z" style="fill:#FFFFFF;"/>
			</g>
			<g>
				<path d="M438.5,303.42c-1.71,1.19-3.48,2.28-5.31,3.29l3.43-18.71L438.5,303.42z" style="fill:#051733;"/>
				<path d="M370.47,306.71c-1.83-1-3.6-2.1-5.31-3.28l1.88-15.43L370.47,306.71z" style="fill:#051733;"/>
			</g>
		</g>
	</g>
	<g>
		<path d="M162.97,250c0,15.98-5.78,30.6-15.36,41.89c-3.92,4.62-8.48,8.69-13.54,12.06&#10;&#9;&#9;&#9;c-1.76,1.18-3.59,2.27-5.47,3.27c-6.92,3.69-14.6,6.17-22.74,7.13c-2.52,0.3-5.09,0.45-7.69,0.45c-3.17,0-6.29-0.23-9.34-0.67&#10;&#9;&#9;&#9;c-8.26-1.19-16.01-3.94-22.95-7.94h-0.01c-1.77-1.02-3.49-2.12-5.15-3.3c-4.93-3.51-9.35-7.68-13.13-12.39&#10;&#9;&#9;&#9;c-8.89-11.09-14.21-25.17-14.21-40.5c0-35.79,29.01-64.8,64.79-64.8C133.96,185.2,162.97,214.21,162.97,250z" style="fill:#D7EAF1;"/>
		<g>
			<g>
				<path d="M147.61,291.89c-3.92,4.62-8.48,8.69-13.54,12.06c-1.76,1.18-3.59,2.27-5.47,3.27&#10;&#9;&#9;&#9;&#9;&#9;c-6.92,3.69-14.6,6.17-22.74,7.13c-2.52,0.3-5.09,0.45-7.69,0.45c-3.17,0-6.29-0.23-9.34-0.67c-8.26-1.19-16.01-3.94-22.95-7.94&#10;&#9;&#9;&#9;&#9;&#9;h-0.01c-1.77-1.02-3.49-2.12-5.15-3.3c-4.93-3.51-9.35-7.68-13.13-12.39c0.01-0.04,0.03-0.07,0.05-0.11&#10;&#9;&#9;&#9;&#9;&#9;c0.12-0.27,0.24-0.53,0.37-0.78c0.1-0.21,0.21-0.42,0.33-0.62c0.04-0.09,0.09-0.18,0.15-0.27c0.1-0.18,0.21-0.36,0.32-0.53&#10;&#9;&#9;&#9;&#9;&#9;c0.09-0.15,0.18-0.29,0.27-0.43c0.17-0.26,0.36-0.52,0.55-0.77c0.16-0.23,0.33-0.45,0.51-0.66c0.17-0.21,0.35-0.42,0.53-0.62&#10;&#9;&#9;&#9;&#9;&#9;c0.05-0.06,0.11-0.12,0.16-0.17c0.2-0.22,0.41-0.44,0.63-0.65c0.03-0.03,0.05-0.05,0.07-0.07c0.21-0.2,0.43-0.4,0.65-0.59&#10;&#9;&#9;&#9;&#9;&#9;c0.25-0.22,0.5-0.43,0.76-0.63c0.21-0.17,0.43-0.33,0.65-0.48c0.29-0.21,0.58-0.41,0.89-0.59c0.17-0.11,0.35-0.22,0.54-0.32&#10;&#9;&#9;&#9;&#9;&#9;c0.54-0.32,1.1-0.6,1.68-0.85c0.2-0.09,0.39-0.17,0.59-0.25c0.3-0.12,0.6-0.23,0.91-0.33c0.3-0.1,0.6-0.2,0.91-0.28l15.53-4.29&#10;&#9;&#9;&#9;&#9;&#9;l0.52-0.14l3.17-0.88l1.81-0.5l0.69-0.19h33l0.69,0.19l1.81,0.5l3.17,0.88l0.52,0.14l15.53,4.29&#10;&#9;&#9;&#9;&#9;&#9;C141.27,282.08,145.75,286.39,147.61,291.89z" style="fill:#FFFFFF;"/>
				<path d="M114.52,274.69c-3.83,5.05-10.1,8.34-17.19,8.34c-7.09,0-13.36-3.29-17.19-8.34l4.94-1.37&#10;&#9;&#9;&#9;&#9;&#9;l1.87-10.5l1.34-7.5l9.04,3.54l9.04-3.54l2.94,16.48l0.27,1.52L114.52,274.69z" style="fill:#F69779;"/>
				<path d="M109.31,271.8c-3.28,1.16-5.83,1.16-5.83,1.16s-10.83,0-16.53-10.14l1.34-7.5l9.04,3.54&#10;&#9;&#9;&#9;&#9;&#9;l9.04-3.54L109.31,271.8z" style="fill:#F37A67;"/>
				<g>
					<g>
						<path d="M147.61,291.89c-3.92,4.62-8.48,8.69-13.54,12.06c-1.76,1.18-3.59,2.27-5.47,3.27&#10;&#9;&#9;&#9;&#9;&#9;&#9;&#9;c-6.92,3.69-14.6,6.17-22.74,7.13c-1.32-9.32,0.29-19.45,0.29-19.45c0-1.1,0.18-2.4,0.48-3.78&#10;&#9;&#9;&#9;&#9;&#9;&#9;&#9;c1.13-5.37,3.92-11.89,3.92-11.89l0.77-0.54l5.01-3.5l3.17,0.88l0.52,0.14l15.53,4.29&#10;&#9;&#9;&#9;&#9;&#9;&#9;&#9;C141.27,282.08,145.75,286.39,147.61,291.89z" style="fill:#A1CC36;"/>
						<path d="M88.83,314.13c-8.26-1.19-16.01-3.94-22.95-7.94h-0.01c-1.77-1.02-3.49-2.12-5.15-3.3&#10;&#9;&#9;&#9;&#9;&#9;&#9;&#9;c-4.93-3.51-9.35-7.68-13.13-12.39c0.01-0.04,0.03-0.07,0.05-0.11c0.12-0.27,0.24-0.53,0.37-0.78&#10;&#9;&#9;&#9;&#9;&#9;&#9;&#9;c0.1-0.21,0.21-0.42,0.33-0.62c0.04-0.09,0.09-0.18,0.15-0.27c0.1-0.18,0.21-0.36,0.32-0.53c0.09-0.15,0.18-0.29,0.27-0.43&#10;&#9;&#9;&#9;&#9;&#9;&#9;&#9;c0.17-0.26,0.36-0.52,0.55-0.77c0.16-0.23,0.33-0.45,0.51-0.66c0.17-0.21,0.35-0.42,0.53-0.62c0.05-0.06,0.11-0.12,0.16-0.17&#10;&#9;&#9;&#9;&#9;&#9;&#9;&#9;c0.2-0.22,0.41-0.44,0.63-0.65c0.03-0.03,0.05-0.05,0.07-0.07c0.21-0.2,0.43-0.4,0.65-0.59c0.25-0.22,0.5-0.43,0.76-0.63&#10;&#9;&#9;&#9;&#9;&#9;&#9;&#9;c0.21-0.17,0.43-0.33,0.65-0.48c0.29-0.21,0.58-0.41,0.89-0.59c0.17-0.11,0.35-0.22,0.54-0.32c0.54-0.32,1.1-0.6,1.68-0.85&#10;&#9;&#9;&#9;&#9;&#9;&#9;&#9;c0.2-0.09,0.39-0.17,0.59-0.25c0.3-0.12,0.6-0.23,0.91-0.33c0.3-0.1,0.6-0.2,0.91-0.28l15.53-4.29l0.52-0.14l3.17-0.88&#10;&#9;&#9;&#9;&#9;&#9;&#9;&#9;l5.01,3.5l0.77,0.54c0,0,2.79,6.52,3.92,11.89v0.01c0.3,1.38,0.48,2.67,0.48,3.77C88.51,294.9,90.09,304.87,88.83,314.13z" style="fill:#A1CC36;"/>
					</g>
				</g>
				<path d="M117.079,216.073c-2.312-4.336-6.735-6.735-10.809-8.062c-5.796-1.887-12.084-1.887-17.879,0&#10;&#9;&#9;&#9;&#9;&#9;c-4.074,1.327-8.497,3.726-10.809,8.062c-4.18,8.004-3.468,20.456-3.468,20.456l4.358,4.625l18.859-2.393l18.859,2.393&#10;&#9;&#9;&#9;&#9;&#9;l4.358-4.625C120.547,236.529,121.259,224.078,117.079,216.073z" style="fill:#051733;"/>
				<path d="M121.758,235.775c-0.121-0.798-0.417-1.608-1.026-2.137c-0.549-0.477-1.305-0.675-2.032-0.644&#10;&#9;&#9;&#9;&#9;&#9;c-0.727,0.031-1.431,0.274-2.086,0.591c0,0-0.064-18.435-6.599-18.65c-4.285-0.214-6.192,1.071-12.684,1.071&#10;&#9;&#9;&#9;&#9;&#9;c-6.493,0-8.399-1.286-12.684-1.071c-6.535,0.214-6.599,18.65-6.599,18.65c-0.655-0.317-1.359-0.56-2.086-0.591&#10;&#9;&#9;&#9;&#9;&#9;c-0.727-0.031-1.483,0.166-2.032,0.644c-0.609,0.529-0.904,1.34-1.026,2.137c-0.244,1.602,0.14,3.29,1.051,4.629&#10;&#9;&#9;&#9;&#9;&#9;c0.911,1.339,2.257,2.346,3.836,2.707C80.575,262.61,97.33,262.61,97.33,262.61s16.755,0,19.541-19.498&#10;&#9;&#9;&#9;&#9;&#9;c1.579-0.361,2.925-1.368,3.836-2.707S122.001,237.376,121.758,235.775z" style="fill:#F69779;"/>
			</g>
			<g>
				<g>
					<path d="M111.317,283.698c0,0-4.094,4.74-5.171,11.205l3.011-23.738l2.16,1.329V283.698z" style="fill:#718F26;"/>
					<path d="M108.064,264.817c0,0,8.21,3.582,11.226,8.754l1.303,15.73l-9.276-5.602L108.064,264.817z" style="fill:#BFE06C;"/>
				</g>
				<g>
					<path d="M83.343,283.698c0,0,4.094,4.74,5.171,11.205l-3.011-23.738l-2.16,1.329V283.698z" style="fill:#718F26;"/>
					<path d="M86.596,264.817c0,0-8.21,3.582-11.226,8.754l-1.303,15.73l9.276-5.602L86.596,264.817z" style="fill:#BFE06C;"/>
				</g>
			</g>
			<path d="M74.233,229.895c0,0-2.112-17.61,9.101-25.381v3.049c0,0,12-11.508,28.229-4.033l-3.344,1.18&#10;&#9;&#9;&#9;&#9;c0,0,7.18,0.197,10.918,5.115l-3.541,0.197c0,0,4.426,1.672,5.508,6.59l-3.344-1.701c0,0,4.126,5.555,2.751,16.347l-5.992-15.432&#10;&#9;&#9;&#9;&#9;l-2.759-2.852L98.174,211.4l-13.07,0.295l-4.965,3.217l-2.019,5.242L74.233,229.895z" style="fill:#051733;"/>
			<g>
				<path d="M96.391,232.936v11.441h1.939C101.653,244.376,97.008,234.25,96.391,232.936z" style="fill:#F37A67;"/>
				<g>
					<g>
						<path d="M110.488,228.478c-2.68-1.324-5.659-1.52-8.452-0.41c-1.183,0.471-0.668,2.406,0.532,1.928&#10;&#9;&#9;&#9;&#9;&#9;&#9;&#9;c2.289-0.91,4.686-0.891,6.911,0.208C110.631,230.774,111.645,229.049,110.488,228.478z" style="fill:#051733;"/>
						<circle r="1.886" cy="232.936" cx="106.189" style="fill:#051733;"/>
					</g>
					<g>
						<path d="M84.172,228.478c2.68-1.324,5.659-1.52,8.452-0.41c1.183,0.471,0.668,2.406-0.532,1.928&#10;&#9;&#9;&#9;&#9;&#9;&#9;&#9;c-2.289-0.91-4.686-0.891-6.911,0.208C84.029,230.774,83.016,229.049,84.172,228.478z" style="fill:#051733;"/>
						<circle r="1.886" cy="232.936" cx="88.471" style="fill:#051733;"/>
					</g>
				</g>
				<path d="M91.185,248.845c0.665,2.482,3.16,4.33,6.146,4.33c2.985,0,5.481-1.848,6.145-4.33H91.185z" style="fill:#FFFFFF;"/>
			</g>
			<g>
				<path d="M134.07,303.95c-1.76,1.18-3.59,2.27-5.47,3.27l3.52-19.22L134.07,303.95z" style="fill:#718F26;"/>
				<path d="M65.87,306.19c-1.77-1.02-3.49-2.12-5.15-3.3L62.54,288L65.87,306.19z" style="fill:#718F26;"/>
			</g>
		</g>
	</g>
	<g>
		<path d="M314.8,250c0,18.71-7.93,35.57-20.62,47.41c-4.1,3.82-8.7,7.12-13.7,9.78&#10;&#9;&#9;&#9;c-9.08,4.86-19.46,7.61-30.48,7.61c-11.02,0-21.4-2.75-30.48-7.6c-5-2.67-9.6-5.97-13.7-9.79c-12.69-11.84-20.62-28.7-20.62-47.41&#10;&#9;&#9;&#9;c0-35.79,29.01-64.8,64.8-64.8S314.8,214.21,314.8,250z" style="fill:#D7EAF1;"/>
		<g>
			<path d="M236.5,206.597c0,0,6-7.597,16.25-7.597s20.5,18,23,31.75s7.75,63.5,7.75,63.5h-64.75&#10;&#9;&#9;&#9;&#9;l4.304-69.109c0.229-3.669,1.151-7.283,2.883-10.525C227.938,210.871,231.25,207.02,236.5,206.597z" style="fill:#E44424;"/>
			<path d="M294.18,297.41c-4.1,3.82-8.7,7.12-13.7,9.78c-9.08,4.86-19.46,7.61-30.48,7.61&#10;&#9;&#9;&#9;&#9;c-11.02,0-21.4-2.75-30.48-7.6c-5-2.67-9.6-5.97-13.7-9.79c3.24-4.35,7.67-7.74,12.82-9.72l0.53-0.2l5.44-2.1&#10;&#9;&#9;&#9;&#9;c2.3-0.89,4.43-2.08,6.35-3.55c4.86-3.7,8.31-9.08,9.59-15.22l0.17-0.84l1.1-5.32v-0.01l1.07-5.13h14.22l1.06,5.14l1.28,6.16&#10;&#9;&#9;&#9;&#9;c0.9,4.32,2.87,8.26,5.66,11.5c1.17,1.37,2.49,2.62,3.93,3.72c1.92,1.47,4.05,2.66,6.35,3.55l5.97,2.3c0.51,0.2,1,0.41,1.5,0.63&#10;&#9;&#9;&#9;&#9;h0.01C287.38,290.35,291.26,293.49,294.18,297.41z" style="fill:#F69779;"/>
			<path d="M265.11,278.12c-3.48,1.32-6.26,1.32-6.26,1.32s-13.22,0-18.13-13.66l2.17-10.46h14.22l2.34,11.3&#10;&#9;&#9;&#9;&#9;C260.35,270.94,262.32,274.88,265.11,278.12z" style="fill:#F37A67;"/>
			<path d="M257.58,215.33c-4.06-2.99-7.58-3.83-7.58-3.83s-3.52,0.84-7.58,3.83&#10;&#9;&#9;&#9;&#9;c-5.56,4.09-12.13,12.23-11.96,27.78c2.78,19.5,19.54,19.5,19.54,19.5s16.76,0,19.54-19.5&#10;&#9;&#9;&#9;&#9;C269.71,227.56,263.14,219.42,257.58,215.33z" style="fill:#F69779;"/>
			<path d="M280.48,307.19c-9.08,4.86-19.46,7.61-30.48,7.61c-11.02,0-21.4-2.75-30.48-7.6&#10;&#9;&#9;&#9;&#9;c0.53-1.06,1-2.1,1.43-3.12c1.51-3.59,2.43-6.91,2.97-9.83c0.69-3.69,0.77-6.73,0.69-8.86c2.3-0.89,4.43-2.08,6.35-3.55v9.26&#10;&#9;&#9;&#9;&#9;c0,1.09,0.13,2.14,0.39,3.15c1.4,5.61,6.47,9.75,12.5,9.75h12.3c6.03,0,11.1-4.14,12.5-9.75c0.26-1.01,0.39-2.06,0.39-3.15v-9.26&#10;&#9;&#9;&#9;&#9;c1.92,1.47,4.05,2.66,6.35,3.55c-0.09,2.13,0,5.17,0.69,8.86C276.78,297.99,278.1,302.4,280.48,307.19z" style="fill:#662D8E;"/>
			<g>
				<path d="M249.061,232.921v11.441H251C254.323,244.361,249.678,234.235,249.061,232.921z" style="fill:#F37A67;"/>
				<g>
					<g>
						<path d="M263.158,228.463c-2.68-1.324-5.658-1.52-8.452-0.41c-1.183,0.471-0.668,2.406,0.532,1.929&#10;&#9;&#9;&#9;&#9;&#9;&#9;&#9;c2.289-0.91,4.686-0.891,6.911,0.208C263.301,230.759,264.314,229.035,263.158,228.463z" style="fill:#E44424;"/>
						<path d="M260.745,232.027c-0.609-1.056-1.886-0.992-1.886-0.992c-1.042,0-1.886,0.844-1.886,1.886&#10;&#9;&#9;&#9;&#9;&#9;&#9;&#9;c0,1.042,0.844,1.886,1.886,1.886c0.23,0,0.447-0.047,0.651-0.122l0.001,0.005c0.012-0.004,0.021-0.011,0.033-0.016&#10;&#9;&#9;&#9;&#9;&#9;&#9;&#9;c0.061-0.024,0.118-0.054,0.176-0.084c1.649-0.715,1.825-2.546,1.825-2.546C261.216,232.321,260.745,232.027,260.745,232.027z" style="fill:#051733;"/>
					</g>
					<g>
						<path d="M236.842,228.463c2.68-1.324,5.659-1.52,8.452-0.41c1.183,0.471,0.668,2.406-0.532,1.929&#10;&#9;&#9;&#9;&#9;&#9;&#9;&#9;c-2.289-0.91-4.686-0.891-6.911,0.208C236.699,230.759,235.686,229.035,236.842,228.463z" style="fill:#E44424;"/>
						<path d="M239.255,232.027c0.609-1.056,1.886-0.992,1.886-0.992c1.042,0,1.886,0.844,1.886,1.886&#10;&#9;&#9;&#9;&#9;&#9;&#9;&#9;c0,1.042-0.844,1.886-1.886,1.886c-0.23,0-0.447-0.047-0.651-0.122l-0.001,0.005c-0.012-0.004-0.021-0.011-0.033-0.016&#10;&#9;&#9;&#9;&#9;&#9;&#9;&#9;c-0.061-0.024-0.118-0.054-0.176-0.084c-1.649-0.715-1.825-2.546-1.825-2.546&#10;&#9;&#9;&#9;&#9;&#9;&#9;&#9;C238.784,232.321,239.255,232.027,239.255,232.027z" style="fill:#051733;"/>
					</g>
				</g>
				<path d="M243.854,250.449c0.665,2.482,3.16,4.33,6.146,4.33c2.985,0,5.481-1.848,6.146-4.33H243.854z" style="fill:#FFFFFF;"/>
			</g>
			<path d="M280.48,307.19c-9.08,4.86-19.46,7.61-30.48,7.61c-11.02,0-21.4-2.75-30.48-7.6&#10;&#9;&#9;&#9;&#9;c0.53-1.06,1-2.1,1.43-3.12c11.09-2.77,28.11,6.1,28.11,6.1c15.19-9.05,25.44-4.56,25.44-4.56c-1.72-5.79,1.58-11.37,1.58-11.37&#10;&#9;&#9;&#9;&#9;C276.78,297.99,278.1,302.4,280.48,307.19z" style="fill:#472063;"/>
		</g>
	</g>
	<g>
		<path d="M162.97,401.19c0,15.71-5.59,30.12-14.9,41.34c-3.96,4.78-8.59,8.98-13.76,12.45&#10;&#9;&#9;&#9;c-1.98,1.34-4.03,2.56-6.16,3.67c-8.96,4.69-19.16,7.34-29.98,7.34c-11.58,0-22.45-3.04-31.85-8.36&#10;&#9;&#9;&#9;c-2.02-1.14-3.97-2.38-5.84-3.73c-5.08-3.64-9.62-8-13.45-12.93c-8.56-10.98-13.65-24.79-13.65-39.78&#10;&#9;&#9;&#9;c0-35.78,29.01-64.79,64.79-64.79C133.96,336.4,162.97,365.41,162.97,401.19z" style="fill:#D7EAF1;"/>
		<g>
			<g>
				<g>
					<path d="M148.07,442.53c-3.96,4.78-8.59,8.98-13.76,12.45c-1.98,1.34-4.03,2.56-6.16,3.67&#10;&#9;&#9;&#9;&#9;&#9;&#9;c-8.96,4.69-19.16,7.34-29.98,7.34c-11.58,0-22.45-3.04-31.85-8.36c-2.02-1.14-3.97-2.38-5.84-3.73&#10;&#9;&#9;&#9;&#9;&#9;&#9;c-5.08-3.64-9.62-8-13.45-12.93c1.84-5.54,6.34-9.89,12.08-11.47l15.53-4.29l5.6-1.55l4.84-1.34l0.24-1.32h24.02l0.24,1.32&#10;&#9;&#9;&#9;&#9;&#9;&#9;l4.84,1.34l5.6,1.55l15.53,4.29C141.82,431.23,146.61,436.25,148.07,442.53z" style="fill:#BD948F;"/>
					<path d="M109.345,421H85.315l-0.235,1.32l-4.84,1.34l0.14,0.38c0.07,0.18,0.14,0.34,0.2,0.48&#10;&#9;&#9;&#9;&#9;&#9;&#9;c1.82,5.28,8.58,8.92,16.75,8.92s14.93-3.64,16.75-8.92c0.06-0.14,0.13-0.3,0.2-0.48l0.14-0.38l-4.84-1.34L109.345,421z" style="fill:#3D3936;"/>
					<path d="M109.58,422.32c-0.04,0.11-0.1,0.2-0.15,0.3c-0.87,3.29-5.95,5.82-12.1,5.82&#10;&#9;&#9;&#9;&#9;&#9;&#9;s-11.23-2.53-12.1-5.82c-0.05-0.1-0.11-0.19-0.15-0.3l1.94-10.88l1.27-7.12l9.04,3.54l9.04-3.54l2.85,16L109.58,422.32z" style="fill:#F69779;"/>
					<path d="M109.22,420.32c-3.23,1.13-5.74,1.13-5.74,1.13s-10.75,0-16.46-10.01l1.27-7.12l9.04,3.54&#10;&#9;&#9;&#9;&#9;&#9;&#9;l9.04-3.54L109.22,420.32z" style="fill:#F37A67;"/>
				</g>
				<g>
					<path d="M105.451,358.292c0,0,10.668-0.965,14.077,6.668c2.498,5.592,4.15,35.204-7.856,36.983&#10;&#9;&#9;&#9;&#9;&#9;&#9;l-10.08-41.356L105.451,358.292z" style="fill:#051733;"/>
					<path d="M89.21,358.292c0,0-10.668-0.965-14.077,6.668c-2.497,5.592-4.15,35.204,7.856,36.983&#10;&#9;&#9;&#9;&#9;&#9;&#9;l10.08-41.356L89.21,358.292z" style="fill:#051733;"/>
				</g>
				<path d="M121.758,384.775c-0.121-0.798-0.417-1.608-1.026-2.138c-0.549-0.478-1.305-0.675-2.032-0.644&#10;&#9;&#9;&#9;&#9;&#9;c-0.727,0.031-1.431,0.274-2.086,0.591c0,0-0.064-18.435-6.599-18.65c-4.285-0.214-6.192,1.071-12.684,1.071&#10;&#9;&#9;&#9;&#9;&#9;c-6.493,0-8.399-1.286-12.684-1.071c-6.535,0.214-6.599,18.65-6.599,18.65c-0.655-0.317-1.359-0.56-2.086-0.591&#10;&#9;&#9;&#9;&#9;&#9;c-0.727-0.031-1.483,0.166-2.032,0.644c-0.609,0.529-0.904,1.34-1.026,2.138c-0.244,1.602,0.14,3.29,1.051,4.629&#10;&#9;&#9;&#9;&#9;&#9;c0.911,1.339,2.257,2.346,3.836,2.707C80.575,411.61,97.33,411.61,97.33,411.61s16.755,0,19.541-19.498&#10;&#9;&#9;&#9;&#9;&#9;c1.579-0.361,2.925-1.368,3.836-2.707C121.618,388.065,122.001,386.376,121.758,384.775z" style="fill:#F69779;"/>
			</g>
			<path d="M110.014,363.935c0,0,0.807-7.943-18.76-7.943c-10.376,0-13.934,6.522-15.268,9.635l3.409-1.038&#10;&#9;&#9;&#9;&#9;c0,0-4.15,5.484-3.409,9.339c0,0,5.929-5.633,10.821-6.077C91.699,367.406,105.057,366.69,110.014,363.935z" style="fill:#051733;"/>
			<g>
				<path d="M134.31,454.98c-1.98,1.34-4.03,2.56-6.16,3.67l3.97-21.65L134.31,454.98z" style="fill:#9C7672;"/>
				<path d="M66.32,457.63c-2.02-1.14-3.97-2.38-5.84-3.73l2.06-16.9L66.32,457.63z" style="fill:#9C7672;"/>
			</g>
			<g>
				<path d="M96.391,385.435v11.441h1.939C101.653,396.876,97.008,386.75,96.391,385.435z" style="fill:#F37A67;"/>
				<g>
					<g>
						<path d="M110.488,380.978c-2.68-1.324-5.659-1.521-8.452-0.41c-1.183,0.471-0.668,2.405,0.532,1.928&#10;&#9;&#9;&#9;&#9;&#9;&#9;&#9;c2.289-0.91,4.686-0.891,6.911,0.208C110.631,383.274,111.645,381.549,110.488,380.978z" style="fill:#051733;"/>
						<circle r="1.886" cy="385.435" cx="106.189" style="fill:#051733;"/>
					</g>
					<g>
						<path d="M84.172,380.978c2.68-1.324,5.659-1.521,8.452-0.41c1.183,0.471,0.668,2.405-0.532,1.928&#10;&#9;&#9;&#9;&#9;&#9;&#9;&#9;c-2.289-0.91-4.686-0.891-6.911,0.208C84.029,383.274,83.016,381.549,84.172,380.978z" style="fill:#051733;"/>
						<circle r="1.886" cy="385.435" cx="88.471" style="fill:#051733;"/>
					</g>
				</g>
				<path d="M91.185,401.345c0.665,2.482,3.16,4.33,6.146,4.33c2.985,0,5.481-1.848,6.145-4.33H91.185z" style="fill:#FFFFFF;"/>
			</g>
		</g>
	</g>
	<g>
		<path d="M466.62,401.19c0,15.34-5.33,29.44-14.25,40.54c-3.9,4.87-8.49,9.15-13.62,12.71&#10;&#9;&#9;&#9;c-1.93,1.35-3.93,2.59-6.01,3.71c-9.18,5-19.72,7.84-30.91,7.84c-11.19,0-21.73-2.84-30.91-7.84c-2.08-1.12-4.08-2.36-6.01-3.7&#10;&#9;&#9;&#9;c-5.14-3.57-9.73-7.85-13.62-12.72c-8.93-11.1-14.26-25.2-14.26-40.54c0-35.78,29.01-64.79,64.8-64.79&#10;&#9;&#9;&#9;C437.61,336.4,466.62,365.41,466.62,401.19z" style="fill:#D7EAF1;"/>
		<g>
			<g>
				<path d="M452.37,441.73c-3.9,4.87-8.49,9.15-13.62,12.71c-1.93,1.35-3.93,2.59-6.01,3.71&#10;&#9;&#9;&#9;&#9;&#9;c-9.18,5-19.72,7.84-30.91,7.84c-11.19,0-21.73-2.84-30.91-7.84c-2.08-1.12-4.08-2.36-6.01-3.7&#10;&#9;&#9;&#9;&#9;&#9;c-5.14-3.57-9.73-7.85-13.62-12.72c1.67-5.9,6.31-10.57,12.32-12.23l15.53-4.29l5.61-1.55l4.83-1.34l0.47-2.65h23.56l0.47,2.65&#10;&#9;&#9;&#9;&#9;&#9;l4.83,1.34l5.61,1.55l15.53,4.29C446.06,431.16,450.7,435.83,452.37,441.73z" style="fill:#1DACAC;"/>
				<path d="M413.607,419.667h-23.554l-0.473,2.653l-4.83,1.34c2.8,15.75,14.09,22.46,14.57,22.75l2.52,1.45&#10;&#9;&#9;&#9;&#9;&#9;l2.51-1.46c0.48-0.28,11.78-7.03,14.56-22.74l-4.83-1.34L413.607,419.667z" style="fill:#007289;"/>
				<path d="M414.08,422.32c-0.06,0.38-0.13,0.75-0.2,1.11c-2.59,13.01-11.87,18.54-12.05,18.65&#10;&#9;&#9;&#9;&#9;&#9;c-0.19-0.11-9.99-5.95-12.25-19.76l1.2-6.72l2.01-11.28l9.04,3.54l9.04-3.54L414.08,422.32z" style="fill:#F69779;"/>
				<path d="M414.08,422.32c-0.06,0.38-0.13,0.75-0.2,1.11c-3.82,1.61-6.99,1.61-6.99,1.61&#10;&#9;&#9;&#9;&#9;&#9;s-10.33,0-16.11-9.44l2.01-11.28l9.04,3.54l9.04-3.54L414.08,422.32z" style="fill:#F37A67;"/>
				<path d="M427.673,363.911c-3.327-6.77-25.848-6.992-25.848-6.992s-22.521,0.222-25.848,6.992&#10;&#9;&#9;&#9;&#9;&#9;c-6.432,16.086,7.632,33.789,7.632,33.789l18.216,4.688l18.216-4.688C420.041,397.7,434.105,379.997,427.673,363.911z" style="fill:#E44424;"/>
				<path d="M393.059,370.004c0,0-17.291-1.529-16.35-8.94c0.235-2.353,4.705-2.353,4.705-2.353&#10;&#9;&#9;&#9;&#9;&#9;s-3.411-1.176-2.353-3.529c1.059-2.353,5.689-1.882,5.689-1.882s-4.16-2.47-2.278-4.705s14.35,0,14.35,0&#10;&#9;&#9;&#9;&#9;&#9;s18.115-1.882,27.407,7.763c5.176,4.587-1.176,17.409-1.176,17.409L393.059,370.004z" style="fill:#E44424;"/>
				<path d="M426.258,384.775c-0.121-0.798-0.417-1.608-1.026-2.138c-0.549-0.478-1.305-0.675-2.032-0.644&#10;&#9;&#9;&#9;&#9;&#9;c-0.727,0.031-1.431,0.274-2.086,0.591c0,0-0.064-18.435-6.599-18.65c-4.285-0.214-6.192,1.071-12.684,1.071&#10;&#9;&#9;&#9;&#9;&#9;c-6.492,0-8.399-1.286-12.684-1.071c-6.535,0.214-6.599,18.65-6.599,18.65c-0.655-0.317-1.359-0.56-2.086-0.591&#10;&#9;&#9;&#9;&#9;&#9;c-0.727-0.031-1.483,0.166-2.032,0.644c-0.609,0.529-0.904,1.34-1.026,2.138c-0.244,1.602,0.14,3.29,1.051,4.629&#10;&#9;&#9;&#9;&#9;&#9;c0.911,1.339,2.257,2.346,3.836,2.707c2.785,19.498,19.541,19.498,19.541,19.498s16.755,0,19.541-19.498&#10;&#9;&#9;&#9;&#9;&#9;c1.579-0.361,2.925-1.368,3.836-2.707C426.118,388.065,426.501,386.376,426.258,384.775z" style="fill:#F69779;"/>
			</g>
			<g>
				<path d="M396.77,408.976v3.63c0,0.645,1,0.645,1,0v-3.63C397.77,408.331,396.77,408.331,396.77,408.976z" style="fill:#E44424;"/>
				<path d="M398.974,409.536c0.062,1.21,0.123,2.42,0.185,3.63c0.033,0.642,1.033,0.645,1,0&#10;&#9;&#9;&#9;&#9;&#9;c-0.062-1.21-0.123-2.42-0.185-3.63C399.941,408.895,398.941,408.891,398.974,409.536z" style="fill:#E44424;"/>
				<path d="M405.89,408.976v3.63c0,0.645,1,0.645,1,0v-3.63C406.89,408.331,405.89,408.331,405.89,408.976z" style="fill:#E44424;"/>
				<path d="M403.686,409.536c-0.062,1.21-0.123,2.42-0.185,3.63c-0.033,0.645,0.967,0.642,1,0&#10;&#9;&#9;&#9;&#9;&#9;c0.062-1.21,0.123-2.42,0.185-3.63C404.719,408.891,403.719,408.895,403.686,409.536z" style="fill:#E44424;"/>
				<path d="M401.33,409.907v3.816c0,0.645,1,0.645,1,0v-3.816C402.33,409.262,401.33,409.262,401.33,409.907&#10;&#9;&#9;&#9;&#9;&#9;z" style="fill:#E44424;"/>
			</g>
			<g>
				<path d="M438.75,454.44c-1.93,1.35-3.93,2.59-6.01,3.71l3.88-21.15L438.75,454.44z" style="fill:#007289;"/>
				<path d="M370.92,458.15c-2.08-1.12-4.08-2.36-6.01-3.7l2.13-17.45L370.92,458.15z" style="fill:#007289;"/>
			</g>
			<g>
				<path d="M400.891,382.435v11.441h1.939C406.154,393.876,401.508,383.75,400.891,382.435z" style="fill:#F37A67;"/>
				<g>
					<g>
						<path d="M414.988,377.978c-2.68-1.324-5.659-1.521-8.452-0.41c-1.183,0.471-0.668,2.405,0.532,1.928&#10;&#9;&#9;&#9;&#9;&#9;&#9;&#9;c2.289-0.91,4.686-0.891,6.911,0.208C415.131,380.274,416.145,378.549,414.988,377.978z" style="fill:#E44424;"/>
						<circle r="1.886" cy="382.435" cx="410.689" style="fill:#051733;"/>
					</g>
					<g>
						<path d="M388.672,377.978c2.68-1.324,5.659-1.521,8.452-0.41c1.184,0.471,0.668,2.405-0.532,1.928&#10;&#9;&#9;&#9;&#9;&#9;&#9;&#9;c-2.289-0.91-4.686-0.891-6.911,0.208C388.529,380.274,387.516,378.549,388.672,377.978z" style="fill:#E44424;"/>
						<circle r="1.886" cy="382.435" cx="392.971" style="fill:#051733;"/>
					</g>
				</g>
				<path d="M395.684,398.345c0.665,2.482,3.16,4.33,6.146,4.33s5.481-1.848,6.146-4.33H395.684z" style="fill:#FFFFFF;"/>
			</g>
		</g>
	</g>
	<g>
		<path d="M314.8,401.19c0,14.34-4.66,27.59-12.54,38.32c-1.35,1.84-2.8,3.61-4.33,5.29&#10;&#9;&#9;&#9;c-0.91,1-1.85,1.98-2.83,2.92c-11.66,11.31-27.56,18.27-45.1,18.27s-33.44-6.96-45.1-18.27c-0.98-0.94-1.92-1.92-2.83-2.92&#10;&#9;&#9;&#9;c-1.53-1.68-2.98-3.45-4.33-5.29c-7.88-10.73-12.54-23.98-12.54-38.32c0-35.78,29.01-64.79,64.8-64.79S314.8,365.41,314.8,401.19z" style="fill:#D7EAF1;"/>
		<g>
			<path d="M287.108,419.465c-1.604-2.421-3.796-4.638-4.262-7.504c-0.626-3.852,2.068-7.458,2.467-11.34&#10;&#9;&#9;&#9;&#9;c0.34-3.303-1.012-6.554-2.729-9.396c-1.716-2.842-3.827-5.454-5.263-8.447c-2.736-5.702-2.022-13.579-4.605-19.352&#10;&#9;&#9;&#9;&#9;C269.013,355.15,259.067,351,250,351c-9.068,0-19.013,4.15-22.717,12.426c-2.583,5.773-1.869,13.65-4.605,19.352&#10;&#9;&#9;&#9;&#9;c-1.437,2.993-3.547,5.605-5.263,8.447c-1.716,2.842-3.068,6.093-2.729,9.396c0.399,3.882,3.093,7.488,2.467,11.34&#10;&#9;&#9;&#9;&#9;c-0.466,2.867-2.658,5.083-4.262,7.504c-2.343,3.535-3.528,7.863-3.11,12.084c0.418,4.221,2.478,8.293,5.761,10.979L250,444.134&#10;&#9;&#9;&#9;&#9;l34.458-1.606c3.283-2.686,5.343-6.758,5.761-10.979C290.636,427.328,289.451,423.001,287.108,419.465z" style="fill:#051733;"/>
			<g>
				<g>
					<path d="M295.1,447.72c-11.66,11.31-27.56,18.27-45.1,18.27s-33.44-6.96-45.1-18.27&#10;&#9;&#9;&#9;&#9;&#9;&#9;c0.96-1.47,2.07-2.84,3.28-4.1c1.42-1.47,3-2.79,4.7-3.92c0.89-0.62,1.82-1.17,2.79-1.66c0.96-0.51,1.95-0.96,2.97-1.35&#10;&#9;&#9;&#9;&#9;&#9;&#9;l5.97-2.3c8.16-3.14,14.16-10.21,15.94-18.77l0.29-1.38l0.99-4.78l1.06-5.14h14.22l1.06,5.14l1.28,6.16&#10;&#9;&#9;&#9;&#9;&#9;&#9;c0.84,4.03,2.61,7.74,5.11,10.86c2.81,3.49,6.52,6.25,10.83,7.91l5.97,2.3c1.02,0.39,2.01,0.84,2.97,1.35&#10;&#9;&#9;&#9;&#9;&#9;&#9;c0.97,0.49,1.9,1.04,2.79,1.66c1.7,1.13,3.28,2.45,4.7,3.92C293.03,444.88,294.14,446.25,295.1,447.72z" style="fill:#F69779;"/>
				</g>
			</g>
			<path d="M264.56,426.48c-3.22,1.12-5.71,1.12-5.71,1.12s-13.02,0-18.01-13.36l2.05-9.92h14.22l2.34,11.3&#10;&#9;&#9;&#9;&#9;C260.29,419.65,262.06,423.36,264.56,426.48z" style="fill:#F37A67;"/>
			<path d="M302.26,439.51c-1.35,1.84-2.8,3.61-4.33,5.29c-0.91,1-1.85,1.98-2.83,2.92&#10;&#9;&#9;&#9;&#9;c-11.66,11.31-27.56,18.27-45.1,18.27s-33.44-6.96-45.1-18.27c-0.98-0.94-1.92-1.92-2.83-2.92c-1.53-1.68-2.98-3.45-4.33-5.29&#10;&#9;&#9;&#9;&#9;c0.02-0.05,0.05-0.1,0.07-0.15c2.36-5.01,7.65-6.99,12.41-5.36c0.39,0.13,0.78,0.29,1.16,0.47c1.71,0.82,3.16,2.06,4.29,3.57&#10;&#9;&#9;&#9;&#9;c0.88,1.18,1.57,2.51,2.05,3.95c2.51-1.93,5.67-2.68,8.82-1.81c1.93,0.54,3.63,1.63,5,3.09c0.86,0.92,1.59,1.99,2.17,3.16&#10;&#9;&#9;&#9;&#9;c1.22-1.3,2.67-2.29,4.27-2.86h0.01c1.3-0.47,2.7-0.66,4.14-0.53c1.14,0.1,2.22,0.4,3.23,0.87l0.01,0.01&#10;&#9;&#9;&#9;&#9;c1.83,0.83,3.42,2.23,4.63,3.99c1.21-1.76,2.8-3.16,4.63-3.99l0.01-0.01c1.01-0.47,2.09-0.77,3.23-0.87&#10;&#9;&#9;&#9;&#9;c1.44-0.13,2.84,0.06,4.14,0.53h0.01c1.6,0.57,3.05,1.56,4.27,2.86c0.58-1.17,1.31-2.24,2.17-3.16c1.37-1.46,3.07-2.55,5-3.09&#10;&#9;&#9;&#9;&#9;c3.15-0.87,6.31-0.12,8.82,1.81c0.48-1.44,1.17-2.77,2.05-3.95c1.13-1.51,2.58-2.75,4.29-3.57c0.38-0.18,0.77-0.34,1.16-0.47&#10;&#9;&#9;&#9;&#9;c4.76-1.63,10.05,0.35,12.41,5.36C302.21,439.41,302.24,439.46,302.26,439.51z" style="fill:#F03832;"/>
			<path d="M297.93,444.8c-0.91,1-1.85,1.98-2.83,2.92c-11.66,11.31-27.56,18.27-45.1,18.27&#10;&#9;&#9;&#9;&#9;s-33.44-6.96-45.1-18.27c-0.98-0.94-1.92-1.92-2.83-2.92c1.85-1.05,3.99-1.46,6.11-1.18c1.09,0.14,2.16,0.45,3.2,0.95&#10;&#9;&#9;&#9;&#9;c3.03,1.46,5.24,4.23,6.34,7.51c2.51-1.92,5.67-2.67,8.82-1.8c3.15,0.88,5.67,3.21,7.17,6.25c2.21-2.37,5.21-3.69,8.42-3.4&#10;&#9;&#9;&#9;&#9;c3.21,0.3,6,2.14,7.87,4.88c1.87-2.74,4.66-4.58,7.87-4.88c3.21-0.29,6.21,1.03,8.42,3.4c1.5-3.04,4.02-5.37,7.17-6.25&#10;&#9;&#9;&#9;&#9;c3.15-0.87,6.31-0.12,8.82,1.8c1.1-3.28,3.31-6.05,6.34-7.51c1.04-0.5,2.11-0.81,3.2-0.95&#10;&#9;&#9;&#9;&#9;C293.94,443.34,296.08,443.75,297.93,444.8z" style="fill:#BF2D28;"/>
			<path d="M268,370.8c-5.6-9-18-12-18-12s-12.4,3-18,12c0,0-2.68,8.019-1.54,21.31&#10;&#9;&#9;&#9;&#9;c2.78,19.5,19.54,19.5,19.54,19.5s16.76,0,19.54-19.5C270.68,378.819,268,370.8,268,370.8z" style="fill:#F69779;"/>
			<path d="M255.053,358.909c-2.211,3.259-6.873,3.796-9.722,6.515c-2.77,2.644-3.316,6.772-4.385,10.449&#10;&#9;&#9;&#9;&#9;c-0.23,0.793-0.505,1.601-1.054,2.218c-1.225,1.376-3.353,1.376-4.997,2.206c-3.048,1.54-3.813,5.456-4.324,8.832&#10;&#9;&#9;&#9;&#9;s-1.577,7.308-4.785,8.477c-0.776-10.125-0.3-20.708,4.259-29.782c4.559-9.074,14.008-16.263,24.142-15.615&#10;&#9;&#9;&#9;&#9;C255.812,352.168,257.737,354.612,255.053,358.909z" style="fill:#051733;"/>
			<g>
				<path d="M249.061,382.071v11.441H251C254.323,393.511,249.678,383.385,249.061,382.071z" style="fill:#F37A67;"/>
				<g>
					<g>
						<path d="M263.158,377.613c-2.68-1.324-5.658-1.52-8.452-0.41c-1.183,0.471-0.668,2.405,0.532,1.929&#10;&#9;&#9;&#9;&#9;&#9;&#9;&#9;c2.289-0.91,4.686-0.891,6.911,0.208C263.301,379.909,264.314,378.184,263.158,377.613z" style="fill:#051733;"/>
						<path d="M260.745,381.177c-0.609-1.056-1.886-0.992-1.886-0.992c-1.042,0-1.886,0.844-1.886,1.886&#10;&#9;&#9;&#9;&#9;&#9;&#9;&#9;c0,1.042,0.844,1.886,1.886,1.886c0.23,0,0.447-0.047,0.651-0.122l0.001,0.005c0.012-0.004,0.021-0.011,0.033-0.016&#10;&#9;&#9;&#9;&#9;&#9;&#9;&#9;c0.061-0.024,0.118-0.054,0.176-0.084c1.649-0.715,1.825-2.546,1.825-2.546C261.216,381.471,260.745,381.177,260.745,381.177z" style="fill:#051733;"/>
					</g>
					<g>
						<path d="M236.842,377.613c2.68-1.324,5.659-1.52,8.452-0.41c1.183,0.471,0.668,2.405-0.532,1.929&#10;&#9;&#9;&#9;&#9;&#9;&#9;&#9;c-2.289-0.91-4.686-0.891-6.911,0.208C236.699,379.909,235.686,378.184,236.842,377.613z" style="fill:#051733;"/>
						<path d="M239.255,381.177c0.609-1.056,1.886-0.992,1.886-0.992c1.042,0,1.886,0.844,1.886,1.886&#10;&#9;&#9;&#9;&#9;&#9;&#9;&#9;c0,1.042-0.844,1.886-1.886,1.886c-0.23,0-0.447-0.047-0.651-0.122l-0.001,0.005c-0.012-0.004-0.021-0.011-0.033-0.016&#10;&#9;&#9;&#9;&#9;&#9;&#9;&#9;c-0.061-0.024-0.118-0.054-0.176-0.084c-1.649-0.715-1.825-2.546-1.825-2.546&#10;&#9;&#9;&#9;&#9;&#9;&#9;&#9;C238.784,381.471,239.255,381.177,239.255,381.177z" style="fill:#051733;"/>
					</g>
				</g>
				<path d="M243.854,399.598c0.665,2.482,3.16,4.33,6.146,4.33c2.985,0,5.481-1.848,6.146-4.33H243.854z" style="fill:#FFFFFF;"/>
			</g>
		</g>
	</g>
</g>
</svg>