<svg width="48" height="48" viewBox="0 0 48 48" fill="none" xmlns="http://www.w3.org/2000/svg">
<circle cx="24" cy="24" r="24" fill="#DFE5F0"/>
<path fill-rule="evenodd" clip-rule="evenodd" d="M23.6 16.75C19.8168 16.75 16.75 19.8168 16.75 23.6C16.75 27.3832 19.8168 30.45 23.6 30.45C27.3832 30.45 30.45 27.3832 30.45 23.6C30.45 19.8168 27.3832 16.75 23.6 16.75ZM15.25 23.6C15.25 18.9884 18.9884 15.25 23.6 15.25C28.2116 15.25 31.95 18.9884 31.95 23.6C31.95 28.2116 28.2116 31.95 23.6 31.95C18.9884 31.95 15.25 28.2116 15.25 23.6Z" fill="black"/>
<path fill-rule="evenodd" clip-rule="evenodd" d="M29.8696 29.8697C30.1625 29.5768 30.6373 29.5768 30.9302 29.8697L32.5302 31.4697C32.8231 31.7626 32.8231 32.2374 32.5302 32.5303C32.2373 32.8232 31.7625 32.8232 31.4696 32.5303L29.8696 30.9303C29.5767 30.6374 29.5767 30.1626 29.8696 29.8697Z" fill="black"/>
</svg>
